<?xml version="1.0" encoding="UTF-8"?>
<svg height="16px" viewBox="0 0 16 16" width="16px" xmlns="http://www.w3.org/2000/svg">
    <path d="m 10 0.761719 c -1.34375 0 -2.6875 0.511719 -3.707031 1.53125 l -4 4 c -2.039063 2.039062 -2.039063 5.375 0 7.414062 c 2.039062 2.039063 5.375 2.039063 7.414062 0 l 3.5 -3.5 c 1.210938 -1.210937 1.210938 -3.203125 0 -4.414062 c -1.210937 -1.210938 -3.203125 -1.210938 -4.414062 0 l -3.5 3.5 c -0.390625 0.390625 -0.390625 1.023437 0 1.414062 s 1.023437 0.390625 1.414062 0 l 3.5 -3.5 c 0.445313 -0.445312 1.140625 -0.445312 1.585938 0 c 0.445312 0.445313 0.445312 1.140625 0 1.585938 l -3.5 3.5 c -1.273438 1.273437 -3.3125 1.273437 -4.585938 0 c -1.273437 -1.273438 -1.273437 -3.3125 0 -4.585938 l 4 -4 c 1.273438 -1.273437 3.3125 -1.273437 4.585938 0 c 0.234375 0.234375 0.421875 0.492188 0.570312 0.765625 c 0.257813 0.488282 0.863281 0.671875 1.351563 0.410156 c 0.488281 -0.261718 0.671875 -0.867187 0.410156 -1.351562 c -0.238281 -0.445312 -0.542969 -0.863281 -0.917969 -1.238281 c -1.019531 -1.019531 -2.363281 -1.53125 -3.707031 -1.53125 z m 0 0" fill="#241f31"/>
</svg>
