<?xml version="1.0" encoding="UTF-8"?>
<svg height="128px" viewBox="0 0 128 128" width="128px" xmlns="http://www.w3.org/2000/svg" xmlns:xlink="http://www.w3.org/1999/xlink">
    <linearGradient id="a" gradientTransform="matrix(-1 0 0 -1 136 -172)" gradientUnits="userSpaceOnUse" x1="28" x2="116" y1="-274" y2="-274">
        <stop offset="0" stop-color="#9a9996"/>
        <stop offset="0.045" stop-color="#f6f5f4"/>
        <stop offset="0.091" stop-color="#c0bfbc"/>
        <stop offset="0.909" stop-color="#c0bfbc"/>
        <stop offset="0.955" stop-color="#f6f5f4"/>
        <stop offset="1" stop-color="#9a9996"/>
    </linearGradient>
    <linearGradient id="b" gradientUnits="userSpaceOnUse" x1="96" x2="48" y1="0" y2="96">
        <stop offset="0" stop-color="#3d3846"/>
        <stop offset="0.215335" stop-color="#77767b"/>
        <stop offset="0.43067" stop-color="#5e5c64"/>
        <stop offset="0.553146" stop-color="#77767b"/>
        <stop offset="0.675621" stop-color="#5e5c64"/>
        <stop offset="0.800431" stop-color="#5e5c64"/>
        <stop offset="1" stop-color="#3d3846"/>
    </linearGradient>
    <path d="m 28 61 h 72 c 4.417969 0 8 3.582031 8 8 v 43 c 0 4.417969 -3.582031 8 -8 8 h -72 c -4.417969 0 -8 -3.582031 -8 -8 v -43 c 0 -4.417969 3.582031 -8 8 -8 z m 0 0" fill="#deddda"/>
    <path d="m 100 120 h -72 c -4.417969 0 -8 -3.582031 -8 -8 v -24 c 0 -4.417969 3.582031 -8 8 -8 h 72 c 4.417969 0 8 3.582031 8 8 v 24 c 0 4.417969 -3.582031 8 -8 8 z m 0 0" fill="url(#a)"/>
    <path d="m 28 16 h 72 c 4.417969 0 8 3.582031 8 8 v 86 c 0 4.417969 -3.582031 8 -8 8 h -72 c -4.417969 0 -8 -3.582031 -8 -8 v -86 c 0 -4.417969 3.582031 -8 8 -8 z m 0 0" fill="#f6f5f4"/>
    <path d="m 28 88 v 24 h 60 v -4 h 12 v -20 z m 0 0" fill="#deddda"/>
    <path d="m 28 24 v 4 h 40 v -4 z m 0 0" fill="#c0bfbc" fill-rule="evenodd"/>
    <path d="m 28 68 h 72 v 12 h -52 v 4 h -20 z m 0 0" fill="#deddda"/>
    <path d="m 28 32 h 72 v 16 h -72 z m 0 0" fill="#deddda"/>
    <path d="m 28 52 h 72 v 12 h -72 z m 0 0" fill="#deddda"/>
    <path d="m 44 31 h 64 c 2.210938 0 4 1.789062 4 4 v 65 c 0 2.210938 -1.789062 4 -4 4 h -64 c -2.210938 0 -4 -1.789062 -4 -4 v -65 c 0 -2.210938 1.789062 -4 4 -4 z m 0 0" fill="#ff7800"/>
    <path d="m 44 30 h 64 c 2.210938 0 4 1.789062 4 4 v 64 c 0 2.210938 -1.789062 4 -4 4 h -64 c -2.210938 0 -4 -1.789062 -4 -4 v -64 c 0 -2.210938 1.789062 -4 4 -4 z m 0 0" fill="#ffa348"/>
    <g fill="#ff7800">
        <path d="m 44 58 v 16 h 56 v -8 h 8 v -8 z m 0 0"/>
        <path d="m 44 46 v 8 h 45 v -8 z m 0 0"/>
        <path d="m 44 38 v 4 h 22 v -4 z m 0 0"/>
        <path d="m 44 78 v 18 h 33 v -10.324219 h 27 v -7.675781 z m 0 0"/>
    </g>
    <path d="m 72 2 c -13.207031 0 -24 10.792969 -24 24 v 52 c 0 13.207031 10.792969 24 24 24 s 24 -10.792969 24 -24 v -36 c 0 -8.789062 -7.210938 -16 -16 -16 s -16 7.210938 -16 16 v 36 c 0 4.417969 3.582031 8 8 8 v -44 c 0 -4.464844 3.535156 -8 8 -8 s 8 3.535156 8 8 v 36 c 0 8.882812 -7.117188 16 -16 16 s -16 -7.117188 -16 -16 v -52 c 0 -8.882812 7.117188 -16 16 -16 c 5.074219 0 9.558594 2.351562 12.480469 6 h 9.28125 c -3.800781 -8.257812 -12.121094 -14 -21.761719 -14 z m 0 0" fill="#241f31"/>
    <path d="m 72 0 c -13.207031 0 -24 10.792969 -24 24 v 52 c 0 13.207031 10.792969 24 24 24 s 24 -10.792969 24 -24 v -36 c 0 -8.789062 -7.210938 -16 -16 -16 s -16 7.210938 -16 16 v 36 c 0 4.417969 3.582031 8 8 8 v -44 c 0 -4.464844 3.535156 -8 8 -8 s 8 3.535156 8 8 v 36 c 0 8.882812 -7.117188 16 -16 16 s -16 -7.117188 -16 -16 v -52 c 0 -8.882812 7.117188 -16 16 -16 c 5.953125 0 11.101562 3.226562 13.859375 8 h 8.75 c -3.300781 -9.328125 -12.199219 -16 -22.609375 -16 z m 0 0" fill="url(#b)"/>
</svg>
