<?xml version="1.0" encoding="UTF-8"?>
<svg height="128px" viewBox="0 0 128 128" width="128px" xmlns="http://www.w3.org/2000/svg" xmlns:xlink="http://www.w3.org/1999/xlink">
    <linearGradient id="a" gradientTransform="matrix(0.107661 0.0391855 -0.268686 0.738208 197.866743 -105.61632)" gradientUnits="userSpaceOnUse" x1="-347.999969" x2="-259.999969" y1="236" y2="236">
        <stop offset="0" stop-color="#f5c211"/>
        <stop offset="1" stop-color="#d3a917" stop-opacity="0.862745"/>
    </linearGradient>
    <linearGradient id="b" gradientTransform="matrix(0.737621 0.268472 -0.242467 0.666174 38.51073 -12.68565)" gradientUnits="userSpaceOnUse" x1="100.451973" x2="111.302658" y1="126.976128" y2="126.976128">
        <stop offset="0" stop-color="#6f6d76"/>
        <stop offset="1" stop-color="#141415"/>
    </linearGradient>
    <linearGradient id="c" gradientTransform="matrix(1.023098 0.372377 -0.347213 0.953959 26.25592 -51.964066)" gradientUnits="userSpaceOnUse" x1="94.742172" x2="103.939232" y1="36.170689" y2="36.15345">
        <stop offset="0" stop-color="#f9f06b"/>
        <stop offset="1" stop-color="#f9f06b" stop-opacity="0"/>
    </linearGradient>
    <linearGradient id="d" gradientTransform="matrix(1.156021 0.420757 -0.276182 0.758804 11.547644 -51.289238)" gradientUnits="userSpaceOnUse" x1="94.790771" x2="102.961594" y1="32.344093" y2="32.344093">
        <stop offset="0" stop-color="#f65192"/>
        <stop offset="1" stop-color="#be084f"/>
    </linearGradient>
    <linearGradient id="e" gradientTransform="matrix(4.808349 1.750096 -0.231983 0.637368 -351.046104 -178.857021)" gradientUnits="userSpaceOnUse" x1="97.910172" x2="99.875961" y1="42.13446" y2="42.13446">
        <stop offset="0" stop-color="#ed333b"/>
        <stop offset="1" stop-color="#970f14"/>
    </linearGradient>
    <path d="m 39.136719 20.417969 h 54.296875 c 3.332031 0 6.035156 3.277343 6.035156 7.324219 v 80.570312 c 0 4.046875 -2.703125 7.328125 -6.035156 7.328125 h -54.296875 c -3.332031 0 -6.035157 -3.28125 -6.035157 -7.328125 v -80.570312 c 0 -4.046876 2.703126 -7.324219 6.035157 -7.324219 z m 0 0" fill="#c0bfbc"/>
    <path d="m 39.136719 13.089844 h 54.296875 c 3.332031 0 6.035156 3.28125 6.035156 7.328125 v 84.234375 c 0 4.042968 -2.703125 7.324218 -6.035156 7.324218 h -54.296875 c -3.332031 0 -6.035157 -3.28125 -6.035157 -7.324218 v -84.234375 c 0 -4.046875 2.703126 -7.328125 6.035157 -7.328125 z m 0 0" fill="#c0bfbc"/>
    <path d="m 38.855469 20.066406 h 54.664062 c 3.355469 0 6.074219 3.144532 6.074219 7.019532 v 77.191406 c 0 3.875 -2.71875 7.015625 -6.074219 7.015625 h -54.664062 c -3.355469 0 -6.074219 -3.140625 -6.074219 -7.015625 v -77.191406 c 0 -3.875 2.71875 -7.019532 6.074219 -7.019532 z m 0 0" fill="#ffffff"/>
    <path d="m 38.855469 13.050781 h 54.664062 c 3.355469 0 6.074219 3.140625 6.074219 7.015625 v 80.703125 c 0 3.875 -2.71875 7.015625 -6.074219 7.015625 h -54.664062 c -3.355469 0 -6.074219 -3.140625 -6.074219 -7.015625 v -80.703125 c 0 -3.875 2.71875 -7.015625 6.074219 -7.015625 z m 0 0" fill="#ffffff"/>
    <g fill="#c0bfbc">
        <path d="m 75.355469 96.488281 l -37.839844 -0.003906 l 0.023437 -4.496094 l 37.835938 0.003907 z m 0 0"/>
        <path d="m 86.164062 104.21875 l -49.152343 -0.003906 l 0.027343 -4.496094 l 49.152344 0.003906 z m 0 0"/>
        <path d="m 83.109375 88.871094 h -45.851563 l 0.027344 -4.5 l 45.851563 0.003906 z m 0 0"/>
        <path d="m 79.429688 81.761719 h -42.320313 l 0.023437 -4.5 l 42.324219 0.003906 z m 0 0"/>
        <path d="m 62.398438 72.953125 l -25.347657 -0.003906 l 0.015625 -4.496094 l 25.347656 0.003906 z m 0 0"/>
        <path d="m 57.984375 65.179688 l -20.953125 -0.003907 l 0.011719 -4.496093 h 20.953125 z m 0 0"/>
        <path d="m 64.417969 56.0625 h -27.285157 l 0.015626 -4.5 l 27.285156 0.003906 z m 0 0"/>
        <path d="m 89.796875 46.867188 h -52.605469 l 0.027344 -4.5 l 52.605469 0.003906 z m 0 0"/>
        <path d="m 84.179688 37.964844 l -46.933594 -0.003906 l 0.027344 -4.496094 h 46.933593 z m 0 0"/>
        <path d="m 94.613281 28.695312 l -57.339843 -0.003906 l 0.035156 -4.496094 h 57.339844 z m 0 0"/>
    </g>
    <path d="m 98.398438 75.4375 h -29.84375 v -19.769531 h 29.84375 z m 0 0" fill="#f66151"/>
    <path d="m 110.75 19.84375 l 7.765625 2.824219 c 0.472656 0.175781 -0.101563 2.960937 -1.289063 6.222656 l -23.347656 64.140625 c -1.1875 3.261719 -2.535156 5.765625 -3.007812 5.589844 l -7.765625 -2.824219 c -0.476563 -0.175781 0.101562 -2.957031 1.289062 -6.21875 l 23.34375 -64.140625 c 1.1875 -3.261719 2.535157 -5.765625 3.011719 -5.59375 z m 0 0" fill="url(#a)"/>
    <path d="m 112.898438 13.9375 l 7.75 2.820312 c 0.476562 0.175782 -0.097657 2.960938 -1.285157 6.222657 l -24.71875 67.914062 c -1.1875 3.261719 -2.535156 5.765625 -3.011719 5.589844 l -7.753906 -2.820313 c -0.472656 -0.171874 0.101563 -2.957031 1.289063 -6.21875 l 24.71875 -67.914062 c 1.1875 -3.261719 2.535156 -5.765625 3.011719 -5.59375 z m 0 0" fill="url(#a)"/>
    <path d="m 84.683594 103.460938 l -1.726563 -7.71875 l 8.003907 2.910156 z m 0 0" fill="url(#b)"/>
    <path d="m 118.492188 25.769531 l -9.59375 -3.519531 l 3.285156 -8.945312 l 9.59375 3.519531 z m 0 0" fill="url(#c)"/>
    <path d="m 120.511719 19.675781 l -9.445313 -3.4375 l 2.257813 -6.199219 l 9.445312 3.4375 z m 0 0" fill="url(#d)"/>
    <path d="m 119.191406 23.417969 l -9.453125 -3.441407 l 0.457031 -1.253906 l 9.449219 3.441406 z m 0 0" fill="url(#e)"/>
</svg>
